<svg xmlns="http://www.w3.org/2000/svg" xmlns:xlink="http://www.w3.org/1999/xlink" version="1.1" x="0px" y="0px" enable-background="new 0 0 100 100" xml:space="preserve" viewBox="11.58 18 76.85 66.34">
  <!-- Logo -->
  <g>
    <path fill="hsl(191, 27%, 55%)" d="M34.48,48.974c0.613,0.01,1.158,0.391,1.377,0.963l3.838,10.012l9.427-33.1c0.193-0.679,0.838-1.129,1.534-1.086   c0.703,0.043,1.281,0.569,1.391,1.266l6.313,40.399l7.888-18.028c0.238-0.546,0.778-0.899,1.374-0.899h19.638   c2.403-7.266,1.123-15.563-4.157-21.856c-8.104-9.658-22.502-10.917-32.158-2.813L50,24.621l-0.941-0.79   c-9.657-8.104-24.055-6.845-32.16,2.813c-5.312,6.33-6.575,14.69-4.113,21.987L34.48,48.974z"/>
    <path fill="hsl(191, 27%, 55%)" d="M68.603,51.5l-9.557,21.843c-0.241,0.551-0.784,0.898-1.373,0.898c-0.064,0-0.129-0.004-0.193-0.013   c-0.661-0.085-1.187-0.597-1.29-1.256l-6.053-38.735l-8.789,30.86c-0.177,0.621-0.73,1.059-1.376,1.087   c-0.662,0.061-1.236-0.358-1.467-0.961l-5.086-13.267L14.028,51.65c1.352,2.668,3.249,5.112,5.684,7.156L49.155,83.51l0.698,0.832   L50,84.221l0.147,0.121l0.699-0.832l29.442-24.703c2.48-2.082,4.396-4.582,5.753-7.307H68.603z"/>
  </g>
  <!-- Text -->
  <text x="62" y="45" fill="white" font-family="Arial" font-size="30">N</text>
</svg>